#!OML:ASF G:\JayActor3\Patient Classification 1\Patient 1\Session 2\male.ASF
:FULLY-SPECIFIED
:DEGREES
662
root -37.1093 15.1926 -1.26336 -518.483 75.7955 194.764
lowerback 10.9318 -0.278575 0.817372
upperback 6.23794 0.149345 4.6222
thorax 0.369094 0.186945 4.33638
lowerneck -8.16743 -2.18996 -0.157371
upperneck -8.92122 -2.35154 4.4676
head -1.35984 -1.06735 1.38793
rclavicle 2.46493e-014 -5.08889e-014
rhumerus -11.4265 40.4658 -88.4033
rradius 56.5275
rwrist -12.6116
rhand -19.745 4.09462
rfingers 7.12502
rthumb 6.58597 -25.783
lclavicle 2.46493e-014 -5.08889e-014
lhumerus -50.827 -26.2195 101.893
lradius 29.2575
lwrist 17.0751
lhand -19.3459 21.934
lfingers 7.12502
lthumb 6.97129 51.7992
rfemur -8.73431 -9.93581 29.8331
rtibia 49.7208
rfoot -42.3358 -5.36184
rtoes -1.76235
lfemur -57.2229 4.08831 -22.2591
ltibia 62.6686
lfoot -15.8692 13.0832
ltoes -18.8197
663
root -36.9988 15.165 -1.28779 -517.967 75.8185 195.238
lowerback 10.9523 -0.19052 0.950552
upperback 6.27869 0.281845 4.64143
thorax 0.391339 0.257816 4.26727
lowerneck -8.24104 -2.2404 -0.156221
upperneck -9.24864 -2.38883 4.49845
head -1.45118 -1.0824 1.40045
rclavicle -1.15295e-014 -2.22639e-014
rhumerus -9.31742 41.707 -87.5913
rradius 58.553
rwrist -12.9316
rhand -19.511 4.06348
rfingers 7.12502
rthumb 6.81186 -25.8069
lclavicle -1.15295e-014 -2.22639e-014
lhumerus -53.4406 -26.7583 103.05
lradius 29.2336
lwrist 16.906
lhand -19.0943 21.7875
lfingers 7.12502
lthumb 7.21408 51.6445
rfemur -8.22822 -9.73314 29.8991
rtibia 49.5522
rfoot -42.3235 -5.38412
rtoes -2.38426
lfemur -57.7908 3.84383 -22.1648
ltibia 61.8019
lfoot -15.7034 13.1125
ltoes -18.7091
664
root -36.8825 15.1411 -1.31562 -517.432 75.8471 195.714
lowerback 10.9624 -0.0858506 1.09281
upperback 6.28884 0.435773 4.66001
thorax 0.386417 0.33915 4.18975
lowerneck -8.29247 -2.29264 -0.152771
upperneck -9.54861 -2.43161 4.51486
head -1.53778 -1.10063 1.40798
rclavicle -9.93923e-015 0
rhumerus -7.23089 42.8799 -86.6563
rradius 60.6313
rwrist -13.2287
rhand -19.3015 4.03868
rfingers 7.12502
rthumb 7.01414 -25.8251
lclavicle -9.93923e-015 0
lhumerus -56.1137 -27.1755 104.175
lradius 29.4221
lwrist 16.8488
lhand -19.0458 21.7011
lfingers 7.12502
lthumb 7.26096 51.5565
rfemur -7.64139 -9.56872 29.9378
rtibia 49.2407
rfoot -42.2754 -5.35756
rtoes -2.92963
lfemur -58.3192 3.59741 -22.0382
ltibia 60.9842
lfoot -15.5284 13.0889
ltoes -18.5964
665
root -36.7596 15.1216 -1.3465 -516.897 75.8738 196.176
lowerback 10.9637 0.0359536 1.23871
upperback 6.26523 0.611421 4.67877
thorax 0.350213 0.4308 4.10765
lowerneck -8.31539 -2.34724 -0.146636
upperneck -9.81993 -2.48086 4.52013
head -1.6202 -1.12274 1.41153
rclavicle -2.90226e-014 0
rhumerus -5.18922 43.9691 -85.619
rradius 62.7406
rwrist -13.4671
rhand -19.1474 4.0448
rfingers 7.12502
rthumb 7.16286 -25.814
lclavicle -2.90226e-014 0
lhumerus -58.8093 -27.4698 105.232
lradius 29.7776
lwrist 16.9443
lhand -19.1469 21.6578
lfingers 7.12502
lthumb 7.1634 51.5166
rfemur -6.95203 -9.4359 29.9509
rtibia 48.7525
rfoot -42.1923 -5.28832
rtoes -3.38114
lfemur -58.8005 3.36023 -21.8936
ltibia 60.2109
lfoot -15.36 13.0272
ltoes -18.4317
666
root -36.6295 15.1071 -1.37994 -516.384 75.8914 196.608
lowerback 10.9563 0.174815 1.38015
upperback 6.20894 0.808076 4.69852
thorax 0.284055 0.532097 4.02644
lowerneck -8.30832 -2.40544 -0.139412
upperneck -10.0601 -2.53799 4.52207
head -1.69767 -1.14954 1.41384
rclavicle 1.59028e-015 -3.18055e-015
rhumerus -3.2104 44.9629 -84.5006
rradius 64.8563
rwrist -13.6337
rhand -19.0643 4.09738
rfingers 7.12502
rthumb 7.24307 -25.7587
lclavicle 1.59028e-015 -3.18055e-015
lhumerus -61.4981 -27.6591 106.2
lradius 30.2605
lwrist 17.2152
lhand -19.3416 21.637
lfingers 7.12502
lthumb 6.97537 51.5021
rfemur -6.13969 -9.32362 29.9424
rtibia 48.0618
rfoot -42.072 -5.18222
rtoes -3.72687
lfemur -59.2237 3.14364 -21.7461
ltibia 59.4755
lfoot -15.2114 12.9446
ltoes -18.1865
